{"title":"The Dictator (2012) UNRATED 720p BRRip x264 - V!$H.mkv","uid":8355795,"size":581273482,"categoryP":"video","categoryS":"hd___movies","magnet":"?xt=urn:btih:881c4afdd81bbbe0b8bacd706b2f71e0044c89d8&amp;dn=The+Dictator+%282012%29+UNRATED+720p+BRRip+x264+-+V%21%24H.mkv&amp;tr=udp%3A%2F%2Ftracker.openbittorrent.com%3A80&amp;tr=udp%3A%2F%2Fopen.demonii.com%3A1337&amp;tr=udp%3A%2F%2Ftracker.coppersurfer.tk%3A6969&amp;tr=udp%3A%2F%2Fexodus.desync.com%3A6969","seeders":4,"leechers":0,"uploader":"vishu19","files":1,"time":1365492715,"description":" &lt;a href=&quot;http://imageshack.us/scaled/landing/823/urlsy.jpg&quot; rel=&quot;nofollow&quot; target=&quot;_NEW&quot;&gt;http://imageshack.us/scaled/landing/823/urlsy.jpg&lt;/a&gt;\n\nPLOT :\n\nThe heroic story of a dictator who risks his life to ensure that democracy would never come to the country he so lovingly oppressed.\n\n\nGeneral\nComplete name : The Dictator (2012) UNRATED 720p BRRip x264 - Gâ„°â„•IAâ„’ Vâ„‘Sâ„Œ.mkv\nFormat : Matroska\nFormat version : Version 2\nFile size : 554 MiB\nDuration : 1h 31mn\nOverall bit rate : 850 Kbps\nMovie name : The Dictator (2012) UNRATED 720p BRRip x264\nEncoded date : UTC 2013-04-04 02:20:38\nWriting application : mkvmerge v4.9.1 ('Ich will') built on Jul 11 2011 23:53:15\nWriting library : libebml v1.2.1 + libmatroska v1.1.1\n\nVideo\nID : 1\nFormat : AVC\nFormat/Info : Advanced Video Codec\nFormat profile : &lt;a class=&quot;__cf_email__&quot; href=&quot;/cdn-cgi/l/email-protection&quot; data-cfemail=&quot;d991b0beb19995eaf7e8&quot;&gt;[email&amp;#160;protected]&lt;/a&gt;&lt;script cf-hash='f9e31' type=&quot;text/javascript&quot;&gt;\n/* &lt;![CDATA[ */!function(){try{var t=&quot;currentScript&quot;in document?document.currentScript:function(){for(var t=document.getElementsByTagName(&quot;script&quot;),e=t.length;e--;)if(t[e].getAttribute(&quot;cf-hash&quot;))return t[e]}();if(t&amp;&amp;t.previousSibling){var e,r,n,i,c=t.previousSibling,a=c.getAttribute(&quot;data-cfemail&quot;);if(a){for(e=&quot;&quot;,r=parseInt(a.substr(0,2),16),n=2;a.length-n;n+=2)i=parseInt(a.substr(n,2),16)^r,e+=String.fromCharCode(i);e=document.createTextNode(e),c.parentNode.replaceChild(e,c)}}}catch(u){}}();/* ]]&gt; */&lt;/script&gt;\nFormat settings, CABAC : Yes\nFormat settings, ReFrames : 4 frames\nMuxing mode : Header stripping\nCodec ID : V_MPEG4/ISO/AVC\nDuration : 1h 31mn\nBit rate : 717 Kbps\nWidth : 1 280 pixels\nHeight : 544 pixels\nDisplay aspect ratio : 2.35:1\nFrame rate : 23.976 fps\nColor space : YUV\nChroma subsampling : 4:2:0\nBit depth : 8 bits\nScan type : Progressive\nBits/(Pixel*Frame) : 0.043\nStream size : 460 MiB (83%)\nWriting library : x264 core 125 r2200 999b753\nLanguage : English\nDefault : Yes\nForced : No\n\nAudio\nID : 2\nFormat : AC-3\nFormat/Info : Audio Coding 3\nMode extension : CM (complete main)\nFormat settings, Endianness : Big\nMuxing mode : Header stripping\nCodec ID : A_AC3\nDuration : 1h 31mn\nBit rate mode : Constant\nBit rate : 128 Kbps\nChannel(s) : 2 channels\nChannel positions : Front: L R\nSampling rate : 44.1 KHz\nBit depth : 16 bits\nCompression mode : Lossy\nStream size : 83.5 MiB (15%)\nTitle : English\nLanguage : English\n &lt;a href=&quot;\nhttp://img171.imageshack.us/img171/6153/thedictator2012unrated7.jpg&quot; rel=&quot;nofollow&quot; target=&quot;_NEW&quot;&gt;\nhttp://img171.imageshack.us/img171/6153/thedictator2012unrated7.jpg&lt;/a&gt;","torrent":{"xt":"urn:btih:881c4afdd81bbbe0b8bacd706b2f71e0044c89d8","amp;dn":"The+Dictator+%282012%29+UNRATED+720p+BRRip+x264+-+V%21%24H.mkv","amp;tr":["udp%3A%2F%2Ftracker.openbittorrent.com%3A80","udp%3A%2F%2Fopen.demonii.com%3A1337","udp%3A%2F%2Ftracker.coppersurfer.tk%3A6969","udp%3A%2F%2Fexodus.desync.com%3A6969"],"infoHash":"881c4afdd81bbbe0b8bacd706b2f71e0044c89d8","infoHashBuffer":{"type":"Buffer","data":[136,28,74,253,216,27,187,224,184,186,205,112,107,47,113,224,4,76,137,216]},"announce":[],"urlList":[]}}